# xmcd
#
# Track frame offsets:
#	150
#	6262
#	20842
#	40868
#	45783
#	67507
#	76515
#	99276
#	103450
#	130394
#	155366
#	164420
#	174764
#	190782
#	225669
#	250344
#	262999
#	282961
#	302191
#	320051
#
# Disc length: 4513 seconds
#
# Revision: 2
# Processed by: cddbd v1.5.2PL0 Copyright (c) Steve Scherf et al.
# Submitted via: EZCDAudioConverter 1.3.4.1
#
DISCID=f9119f14
DTITLE=Hunter S. Thompson - The Gonzo Tapes 3/5
DYEAR=2008
DGENRE=
TTITLE0=As Ususal, You're Afraid Of Mexicans, Aren't You?
TTITLE1=We're Approaching The Fog Cutter
TTITLE2=We're Going To The Pussycat Now
TTITLE3=Chances Are Very Good That I'll Leave Tomorrow
TTITLE4=Yes, This Is Oscar Acosta In Room 1224
TTITLE5=Boulder Highway, Heading Toward Lake Mead In The Great White Whale
TTITLE6=Two Things We Should Probably Get Down
TTITLE7=Ah Yes, We're Coming Over A Hill Here
TTITLE8=I Was Just Kind Of Walking Around Picking Up All This Literature
TTITLE9=A Strange Backwaters Of Some Sort - A 300-Pound Girl And 98-Pound Boy
TTITLE10=I'm Pulling Off On A Side Road
TTITLE11=Aw Jesus
TTITLE12=Maybe I'll Drive Back Into These Weird Holes
TTITLE13=People Appear Out Of Nowhere In This Desert
TTITLE14=What The Fuck's Going On Here
TTITLE15=Las Vegas, April 29, Thursday Night, After The D.A.'s Convention
TTITLE16=I Can't Imagine How I'm Going To Get This Whole Fucking Room Into One
TTITLE16=And-A-Half Suitcases
TTITLE17=When I Start To Grapple With Vegas...
TTITLE18=I Figure I'm Going To Start On Vegas II On Wednesday
TTITLE19=Anyway, There's Vegas To Be Finished
EXTD=
EXTT0=
EXTT1=
EXTT2=
EXTT3=
EXTT4=
EXTT5=
EXTT6=
EXTT7=
EXTT8=
EXTT9=
EXTT10=
EXTT11=
EXTT12=
EXTT13=
EXTT14=
EXTT15=
EXTT16=
EXTT17=
EXTT18=
EXTT19=
PLAYORDER=
